# xmcd CD database file
#
# Track frame offsets:
#	150
#	3701
#	22323
#	41564
#	63902
#	82452
#	107006
#	129424
#	151876
#	168726
#
# Disc length: 2586 seconds
#
# Revision: 1
# Processed by: cddbd v1.5.2PL0 Copyright (c) Steve Scherf et al.
# Submitted via: CDex 1.51
#
DISCID=870a180a
DTITLE=Keiji Shima - Real Very Rare
DYEAR=2010
DGENRE=Jazz
TTITLE0=Introduction (A Secret Door)
TTITLE1=Highlight, Tonight, Midnight !
TTITLE2=Flow
TTITLE3=Mr. E
TTITLE4=Who Sat ?
TTITLE5=Ayufias (An Old Landscape)
TTITLE6=I Didn't Know What Time It Was
TTITLE7=When You're Smiling
TTITLE8=Return Alive
TTITLE9=Amsterdam Avenue
EXTD=YEAR: 2010
EXTT0=
EXTT1=
EXTT2=
EXTT3=
EXTT4=
EXTT5=
EXTT6=
EXTT7=
EXTT8=
EXTT9=
PLAYORDER=
